<?xml version="1.0" encoding="UTF-8"?>
<!DOCTYPE svg PUBLIC "-//W3C//DTD SVG 1.1//EN" "http://www.w3.org/Graphics/SVG/1.1/DTD/svg11.dtd">
<svg xmlns="http://www.w3.org/2000/svg" version="1.1" width="500px" height="500px" style="shape-rendering:geometricPrecision; text-rendering:geometricPrecision; image-rendering:optimizeQuality; fill-rule:evenodd; clip-rule:evenodd" xmlns:xlink="http://www.w3.org/1999/xlink">
<g><path style="opacity:1" fill="#fcfbfb" d="M -0.5,-0.5 C 166.167,-0.5 332.833,-0.5 499.5,-0.5C 499.5,166.167 499.5,332.833 499.5,499.5C 332.833,499.5 166.167,499.5 -0.5,499.5C -0.5,332.833 -0.5,166.167 -0.5,-0.5 Z"/></g>
<g><path style="opacity:1" fill="#1f265a" d="M 33.5,37.5 C 32.5043,50.9898 32.171,64.6565 32.5,78.5C 31.5,78.5 30.5,78.5 29.5,78.5C 29.5,63.8333 29.5,49.1667 29.5,34.5C 54.5,34.5 79.5,34.5 104.5,34.5C 104.5,49.1667 104.5,63.8333 104.5,78.5C 103.5,78.5 102.5,78.5 101.5,78.5C 101.5,64.8333 101.5,51.1667 101.5,37.5C 78.8333,37.5 56.1667,37.5 33.5,37.5 Z"/></g>
<g><path style="opacity:1" fill="#cacbd7" d="M 33.5,37.5 C 33.5,51.5 33.5,65.5 33.5,79.5C 31.901,79.7678 30.5676,79.4345 29.5,78.5C 30.5,78.5 31.5,78.5 32.5,78.5C 32.171,64.6565 32.5043,50.9898 33.5,37.5 Z"/></g>
<g><path style="opacity:1" fill="#ef4288" d="M 77.5,48.5 C 78.8333,48.5 80.1667,48.5 81.5,48.5C 81.2011,50.604 81.5344,52.604 82.5,54.5C 85.5803,52.8953 88.0803,53.562 90,56.5C 90.6667,59.1667 90.6667,61.8333 90,64.5C 89.5,65.6667 88.6667,66.5 87.5,67C 84.0644,66.6519 80.7311,66.8186 77.5,67.5C 77.5,61.1667 77.5,54.8333 77.5,48.5 Z"/></g>
<g><path style="opacity:1" fill="#ee3682" d="M 42.5,54.5 C 43.8333,54.5 45.1667,54.5 46.5,54.5C 47.5,63.8333 48.5,63.8333 49.5,54.5C 50.8734,54.3433 52.2068,54.51 53.5,55C 55.5152,62.4978 56.8485,62.3312 57.5,54.5C 58.8734,54.3433 60.2068,54.51 61.5,55C 60.0933,58.7856 58.76,62.6189 57.5,66.5C 56.5,67.8333 55.5,67.8333 54.5,66.5C 52.4363,57.4627 50.7696,57.796 49.5,67.5C 48.1779,67.67 47.0113,67.3366 46,66.5C 44.8295,62.4815 43.6628,58.4815 42.5,54.5 Z"/></g>
<g><path style="opacity:1" fill="#ef3b85" d="M 66.5,53.5 C 72.0237,53.3582 75.0237,56.0249 75.5,61.5C 72.4281,61.1826 69.4281,61.5159 66.5,62.5C 68.0993,64.7288 70.0993,65.0622 72.5,63.5C 75.0443,64.7348 75.0443,65.9015 72.5,67C 64.7196,68.5531 61.553,65.3864 63,57.5C 64.3756,56.2949 65.5423,54.9616 66.5,53.5 Z"/></g>
<g><path style="opacity:1" fill="#fcf1f5" d="M 67.5,56.5 C 69.3464,56.2222 70.6798,56.8888 71.5,58.5C 69.8333,59.8333 68.1667,59.8333 66.5,58.5C 66.8627,57.8165 67.1961,57.1499 67.5,56.5 Z"/></g>
<g><path style="opacity:1" fill="#fcf3f6" d="M 81.5,57.5 C 87.1581,56.6794 88.8248,58.846 86.5,64C 84.8876,64.7203 83.3876,64.5536 82,63.5C 81.5045,61.5273 81.3379,59.5273 81.5,57.5 Z"/></g>
<g><path style="opacity:1" fill="#caccd7" d="M 56.5,73.5 C 59.9103,73.3838 61.2436,75.0504 60.5,78.5C 57.9556,78.8957 55.7889,78.229 54,76.5C 53.6667,77.1667 53.3333,77.8333 53,78.5C 51.6667,75.8333 50.3333,75.8333 49,78.5C 47.9121,75.5075 48.5787,74.5075 51,75.5C 53.0299,75.0463 54.8632,74.3796 56.5,73.5 Z"/></g>
<g><path style="opacity:1" fill="#aaadc0" d="M 68.5,73.5 C 74.2076,73.4924 74.5409,73.9924 69.5,75C 73.5,75.6667 73.5,76.3333 69.5,77C 74.5409,78.0076 74.2076,78.5076 68.5,78.5C 68.5,76.8333 68.5,75.1667 68.5,73.5 Z"/></g>
<g><path style="opacity:1" fill="#f0498a" d="M 104.5,87.5 C 79.8557,89.4906 54.8557,90.1572 29.5,89.5C 29.5,88.5 29.5,87.5 29.5,86.5C 54.6722,86.169 79.6722,86.5023 104.5,87.5 Z"/></g>
<g><path style="opacity:1" fill="#f485b6" d="M 104.5,87.5 C 105.404,88.209 105.737,89.209 105.5,90.5C 79.9945,90.8311 54.6612,90.4977 29.5,89.5C 54.8557,90.1572 79.8557,89.4906 104.5,87.5 Z"/></g>
</svg>
